<svg
  xmlns="http://www.w3.org/2000/svg"
  viewBox="-150.65 -150.65 643.68 643.68"
  fill="#000000"
>
  <path
    d="M45.225,125.972C20.284,125.972,0,146.256,0,171.191c0,24.94,20.284,45.219,45.225,45.219 c24.926,0,45.219-20.278,45.219-45.219C90.444,146.256,70.151,125.972,45.225,125.972z"
  />
  <path
    d="M173.409,125.972c-24.938,0-45.225,20.284-45.225,45.219c0,24.94,20.287,45.219,45.225,45.219 c24.936,0,45.226-20.278,45.226-45.219C218.635,146.256,198.345,125.972,173.409,125.972z"
  />
  <path
    d="M297.165,125.972c-24.932,0-45.222,20.284-45.222,45.219c0,24.94,20.29,45.219,45.222,45.219 c24.926,0,45.217-20.278,45.217-45.219C342.382,146.256,322.091,125.972,297.165,125.972z"
  />
</svg>
